<svg viewBox="0 0 512 424" fill="none" xmlns="http://www.w3.org/2000/svg">
<path fill-rule="evenodd" clip-rule="evenodd" d="M212.051 0C329.163 0 424.102 94.9156 424.102 212C424.102 239.673 418.797 266.108 409.15 290.343L455.574 294.532L455.752 294.548L455.928 294.573C475.215 297.263 498.296 304.341 505.489 306.632C511.159 308.438 513.561 314.841 510.942 319.884L477.459 384.372C475.189 388.744 469.94 390.626 465.411 388.703C458.9 385.938 436.516 376.857 417.601 373.843C390.7 372.538 373.88 373.486 349.089 373.786C312.129 405.108 264.297 424 212.051 424C94.9384 424 0 329.084 0 212C0 94.9156 94.9384 0 212.051 0ZM429.694 361.353C444.254 364.762 458.74 370.208 466.675 373.408L495.07 318.716C486.284 316.077 471.933 312.079 458.794 309.818L429.694 361.353ZM212.573 271.527C184.593 271.527 161.911 294.204 161.911 322.177C161.911 350.151 184.593 372.828 212.573 372.828C240.553 372.828 263.236 350.151 263.236 322.177C263.236 294.204 240.553 271.527 212.573 271.527ZM402.921 304.462C393.149 324.589 380.285 342.935 364.947 358.888C380.859 358.571 395.361 358.272 414.197 359.056L442.983 308.076L402.921 304.462ZM103.936 161.872C75.9562 161.872 53.2739 184.549 53.2739 212.522C53.2739 240.496 75.9562 263.172 103.936 263.172C131.916 263.172 154.599 240.496 154.599 212.522C154.599 184.549 131.916 161.872 103.936 161.872ZM323.299 161.872C295.319 161.872 272.637 184.549 272.637 212.522C272.637 240.496 295.319 263.172 323.299 263.172C351.279 263.172 373.962 240.496 373.962 212.522C373.962 184.549 351.279 161.872 323.299 161.872ZM212.051 180.67C194.744 180.67 180.713 194.697 180.713 212C180.713 229.303 194.744 243.33 212.051 243.33C229.358 243.33 243.389 229.303 243.389 212C243.389 194.697 229.358 180.67 212.051 180.67ZM214.662 52.2168C186.682 52.2168 164 74.8936 164 102.867C164 130.84 186.682 153.517 214.662 153.517C242.642 153.517 265.325 130.84 265.325 102.867C265.325 74.8936 242.642 52.2168 214.662 52.2168Z" fill="url(#paint0_linear_104_46)"/>
<defs>
<linearGradient id="paint0_linear_104_46" x1="0" y1="0" x2="511.747" y2="424.121" gradientUnits="userSpaceOnUse">
<stop offset="0.139423" stop-color="#06BCEB"/>
<stop offset="0.764423" stop-color="#083344"/>
</linearGradient>
</defs>
</svg>
